<?xml version="1.0" encoding="UTF-8" standalone="no"?>
<svg
   xmlns:dc="http://purl.org/dc/elements/1.1/"
   xmlns:cc="http://creativecommons.org/ns#"
   xmlns:rdf="http://www.w3.org/1999/02/22-rdf-syntax-ns#"
   xmlns:svg="http://www.w3.org/2000/svg"
   xmlns="http://www.w3.org/2000/svg"
   xmlns:sodipodi="http://sodipodi.sourceforge.net/DTD/sodipodi-0.dtd"
   xmlns:inkscape="http://www.inkscape.org/namespaces/inkscape"
   version="1.1"
   id="svg2"
   width="512"
   height="512"
   viewBox="0 0 512 512"
   sodipodi:docname="ksvg.svg"
   inkscape:version="1.0.1 (0767f8302a, 2020-10-17)"
   inkscape:export-filename="/home/mmo/work/ksvg/ksvg.png"
   inkscape:export-xdpi="96"
   inkscape:export-ydpi="96">
  <metadata
     id="metadata8">
    <rdf:RDF>
      <cc:Work
         rdf:about="">
        <dc:format>image/svg+xml</dc:format>
        <dc:type
           rdf:resource="http://purl.org/dc/dcmitype/StillImage" />
        <dc:title></dc:title>
      </cc:Work>
    </rdf:RDF>
  </metadata>
  <defs
     id="defs6" />
  <sodipodi:namedview
     pagecolor="#ffffff"
     bordercolor="#666666"
     borderopacity="1"
     objecttolerance="10"
     gridtolerance="10"
     guidetolerance="10"
     inkscape:pageopacity="0"
     inkscape:pageshadow="2"
     inkscape:window-width="1848"
     inkscape:window-height="1016"
     id="namedview4"
     showgrid="false"
     inkscape:zoom="1.1904806"
     inkscape:cx="180.90495"
     inkscape:cy="328.65882"
     inkscape:window-x="72"
     inkscape:window-y="27"
     inkscape:window-maximized="1"
     inkscape:current-layer="layer1" />
  <g
     inkscape:groupmode="layer"
     id="layer1"
     inkscape:label="bgrd">
    <rect
       style="opacity:0.99;fill:#241f1c;stroke-width:9.58245;stop-color:#000000"
       id="rect837"
       width="512"
       height="512"
       x="0"
       y="0"
       ry="31.832289" />
  </g>
  <g
     inkscape:groupmode="layer"
     inkscape:label="Image"
     id="g10">
    <g
       id="g834"
       transform="matrix(3.7795276,0,0,3.7795276,8.3824263,-611.71564)">
      <path
         inkscape:connector-curvature="0"
         d="m 98.985679,213.05374 c 0.01036,-0.005 0.0299,-0.0166 0.0588,-0.0332 1.651841,-0.97008 1.651361,-3.25751 0,-4.22831 -0.02754,-0.0171 -0.04844,-0.0286 -0.05999,-0.0339 L 67.718232,193.37937 c -0.736377,-0.36216 -1.613196,-0.36216 -2.34932,0 l -31.291251,15.39125 c -0.0027,0.002 -0.04034,0.0216 -0.09999,0.0546 -0.797444,0.43744 -1.288262,1.24807 -1.275556,2.11933 v 0.005 38.32027 c 0,0.89674 0.527977,1.71892 1.369693,2.13302 l 31.297098,15.39392 c 0,0 2.49e-4,0 2.49e-4,2.3e-4 0.733578,0.34893 1.60124,0.35062 2.336852,0.005 0.0073,-0.004 0.01211,-0.005 0.01211,-0.005 l 31.297064,-15.39433 c 1.044559,-0.51366 1.369769,-1.69536 1.369769,-2.83762 v -13.1303 c 0,-1.28078 -1.022919,-2.39924 -2.375299,-2.48197 -1.481942,-0.0907 -2.713608,1.01868 -2.713608,2.39949 v 12.45816 l -26.208412,12.89001 v -32.94055 z m -32.442543,-14.83023 25.785486,12.68301 -25.785486,12.683 -25.785521,-12.683 z m -28.752634,16.64534 26.20815,12.89078 v 32.9408 l -26.20815,-12.89052 z"
         id="path4"
         style="fill:#338000;stroke-width:0.247364" />
      <path
         inkscape:connector-curvature="0"
         d="m 116.64842,249.49814 v -38.30592 c 4.39967,-1.06691 7.65996,-4.83076 7.65996,-9.29766 0,-5.2938 -4.5787,-9.60043 -10.20666,-9.60043 -2.9905,0 -5.68435,1.21589 -7.55282,3.14944 L 76.543048,180.75511 c 0.168605,-0.69083 0.257719,-1.40992 0.257719,-2.14841 0,-5.29356 -4.578738,-9.6002 -10.206754,-9.6002 -5.62801,0 -10.206758,4.30664 -10.206758,9.6002 0,0.73849 0.08903,1.45758 0.257722,2.14841 l -30.005775,14.68846 c -1.868525,-1.93355 -4.562462,-3.14944 -7.552819,-3.14944 -5.628003,0 -10.2067709,4.30663 -10.2067709,9.60043 0,4.4669 3.2603029,8.23099 7.6600449,9.29766 v 38.30592 c -4.39999,1.06691 -7.6600449,4.83099 -7.6600449,9.29765 0,5.29379 4.5787679,9.6002 10.2067709,9.6002 3.002074,0 5.705671,-1.22547 7.574971,-3.17244 l 29.983623,14.67744 c -0.168607,0.69083 -0.257722,1.41016 -0.257722,2.14842 0,5.29378 4.578748,9.60019 10.206758,9.60019 5.628016,0 10.206754,-4.30641 10.206754,-9.60019 0,-0.73826 -0.08902,-1.45759 -0.257719,-2.14842 L 106.52655,265.2238 c 1.86936,1.94696 4.57293,3.17243 7.57517,3.17243 5.62796,0 10.20666,-4.30665 10.20666,-9.60019 3.1e-4,-4.46691 -3.26004,-8.23099 -7.65996,-9.2979 z m -2.5467,-52.41327 c 2.81945,0 5.11318,2.15776 5.11318,4.80969 0,2.65191 -2.29373,4.80944 -5.11318,4.80944 -2.81967,0 -5.11365,-2.15753 -5.11365,-4.80944 2.4e-4,-2.65193 2.29398,-4.80969 5.11365,-4.80969 z M 66.594013,173.79726 c 2.819477,0 5.113314,2.15751 5.113314,4.80944 0,2.65191 -2.293837,4.80943 -5.113314,4.80943 -2.819474,0 -5.113308,-2.15752 -5.113308,-4.80943 0,-2.65193 2.293834,-4.80944 5.113308,-4.80944 z m -52.621215,28.0973 c 0,-2.65193 2.293835,-4.80969 5.113324,-4.80969 2.819483,0 5.113574,2.15776 5.113574,4.80969 0,2.65191 -2.293838,4.80944 -5.113574,4.80944 -2.819742,0 -5.113324,-2.15753 -5.113324,-4.80944 z m 5.113585,61.71091 c -2.819494,0 -5.113315,-2.15751 -5.113315,-4.80943 0,-2.65193 2.293821,-4.80945 5.113315,-4.80945 2.819475,0 5.113566,2.15752 5.113566,4.80945 0,2.65192 -2.294091,4.80943 -5.113566,4.80943 z m 47.50763,23.25362 c -2.819474,0 -5.113308,-2.15752 -5.113308,-4.80945 0,-2.65192 2.293834,-4.80943 5.113308,-4.80943 2.819477,0 5.113314,2.15751 5.113314,4.80943 0,2.65193 -2.293837,4.80945 -5.113314,4.80945 z m 7.601719,-11.20917 c -1.870306,-1.96326 -4.585121,-3.20047 -7.601719,-3.20047 -3.016599,0 -5.731407,1.23721 -7.601726,3.20047 L 29.026244,260.9811 c 0.174451,-0.70209 0.266897,-1.43363 0.266897,-2.18506 0,-4.46691 -3.260323,-8.23099 -7.660287,-9.29766 v -38.30616 c 4.399964,-1.06667 7.660287,-4.83076 7.660287,-9.29766 0,-0.76222 -0.09521,-1.50407 -0.274533,-2.21549 l 29.973679,-14.67265 c 1.870319,1.96326 4.585127,3.20047 7.601475,3.20047 3.016584,0 5.731405,-1.23721 7.601713,-3.20047 l 29.973595,14.67265 c -0.17926,0.71142 -0.27441,1.45303 -0.27441,2.21549 0,4.4669 3.26031,8.23099 7.66031,9.29766 v 38.30592 c -4.4,1.06666 -7.66031,4.83076 -7.66031,9.29765 0,0.75144 0.0913,1.48274 0.26679,2.18506 z m 39.905988,-12.04445 c -2.81967,0 -5.11365,-2.15751 -5.11365,-4.80943 0,-2.65193 2.29375,-4.80945 5.11365,-4.80945 2.81968,0 5.11318,2.15752 5.11318,4.80945 0,2.65192 -2.2935,4.80943 -5.11318,4.80943 z"
         id="path6"
         style="fill:#71c837;stroke-width:0.246989" />
    </g>
  </g>
</svg>
